<svg width="30" height="30" viewBox="0 0 30 30" fill="none" xmlns="http://www.w3.org/2000/svg">
<g clip-path="url(#LinkedIn-clip0)">
<path d="M29.9926 30.0003V29.999H30.0001V18.9965C30.0001 13.614 28.8414 9.46777 22.5488 9.46777C19.5238 9.46777 17.4938 11.1278 16.6651 12.7015H16.5776V9.97027H10.6113V29.999H16.8238V20.0815C16.8238 17.4703 17.3188 14.9453 20.5526 14.9453C23.7388 14.9453 23.7863 17.9253 23.7863 20.249V30.0003H29.9926Z" fill="#1C1E1B"/>
<path d="M0.495117 9.97119H6.71512V29.9999H0.495117V9.97119Z" fill="#1C1E1B"/>
<path d="M3.6025 0C1.61375 0 0 1.61375 0 3.6025C0 5.59125 1.61375 7.23875 3.6025 7.23875C5.59125 7.23875 7.205 5.59125 7.205 3.6025C7.20375 1.61375 5.59 0 3.6025 0V0Z" fill="#1C1E1B"/>
</g>
<defs>
<clipPath id="LinkedIn-clip0">
<rect width="30" height="30" fill="white"/>
</clipPath>
</defs>
</svg>
