<svg width="30" height="30" viewBox="0 0 30 30" fill="none" xmlns="http://www.w3.org/2000/svg">
<g clip-path="url(#medium-clip0)">
<path d="M27.6062 5.91625L30 3.62625V3.125H21.7075L15.7975 17.835L9.07375 3.125H0.37875V3.62625L3.175 6.9925C3.4475 7.24125 3.59 7.605 3.55375 7.97125V21.2C3.64 21.6762 3.485 22.1662 3.15 22.5125L0 26.33V26.825H8.93125V26.3237L5.78125 22.5125C5.44 22.165 5.27875 21.6837 5.3475 21.2V9.7575L13.1875 26.8312H14.0988L20.84 9.7575V23.3587C20.84 23.7175 20.84 23.7912 20.605 24.0262L18.18 26.3725V26.875H29.945V26.3737L27.6075 24.085C27.4025 23.93 27.2962 23.67 27.34 23.4175V6.58375C27.2962 6.33 27.4012 6.07 27.6062 5.91625Z" fill="#1C1E1B"/>
</g>
<defs>
<clipPath id="medium-clip0">
<rect width="30" height="30" fill="white"/>
</clipPath>
</defs>
</svg>
